#!OML:ASF X:\für Bonn\!DataBase\2005_08_11_Bastian_Final\c3d\Bastian.ASF
:FULLY-SPECIFIED
:DEGREES
47
root 0.101948 17.513 1.6459 167.265 -1.4453 -174.81
lowerback 10.6943 -1.92005 2.95948
upperback 2.08109 -2.40999 2.37271
thorax -3.83277 -1.34096 1.14545
lowerneck 7.41765 -3.89919 -10.6791
upperneck 6.99528 -5.74077 8.83725
head 1.43647 -2.86154 4.43931
rclavicle -4.88265e-015 1.2921e-014
rhumerus 48.352 -11.6091 36.7123
rradius 38.8278
rwrist -58.4825
rhand -51.7958 -15.4268
rfingers 7.12502
rthumb -24.3118 -43.9051
lclavicle -4.88265e-015 1.2921e-014
lhumerus 47.167 -10.797 -63.2827
lradius 37.2965
lwrist 53.514
lhand -60.8571 38.3229
lfingers 7.12502
lthumb -32.9674 65.3299
rfemur 7.00638 3.20848 28.7518
rtibia 28.9061
rfoot -17.5077 -19.9068
rtoes 1.52884
lfemur 10.5734 1.02242 -13.4469
ltibia 22.163
lfoot -12.5463 -3.38965
ltoes -12.3973
48
root 0.103901 17.5116 1.60717 167.454 -1.38164 -174.807
lowerback 10.4797 -1.98463 3.02251
upperback 1.96157 -2.48279 2.38917
thorax -3.84111 -1.37342 1.13154
lowerneck 7.80946 -3.74684 -10.9423
upperneck 6.9456 -5.57947 8.98598
head 1.35451 -2.78855 4.53906
rclavicle 3.8117e-014 -3.27995e-014
rhumerus 44.4738 -10.2559 40.8246
rradius 38.8892
rwrist -60.0778
rhand -52.7635 -14.9956
rfingers 7.12502
rthumb -25.2392 -43.3464
lclavicle 3.8117e-014 -3.27995e-014
lhumerus 44.798 -15.2197 -69.4617
lradius 37.4271
lwrist 57.0558
lhand -61.1798 39.7728
lfingers 7.12502
lthumb -33.2743 66.7147
rfemur 6.94874 3.21407 28.7592
rtibia 28.9106
rfoot -17.6294 -19.84
rtoes 1.49399
lfemur 10.5375 1.01557 -13.4478
ltibia 22.1429
lfoot -12.7047 -3.30565
ltoes -12.6119
49
root 0.106607 17.5104 1.57171 167.605 -1.32252 -174.803
lowerback 10.3234 -2.05007 3.06469
upperback 1.87142 -2.56138 2.41514
thorax -3.84972 -1.41019 1.14149
lowerneck 8.14027 -3.59237 -11.2231
upperneck 6.90157 -5.41608 9.14146
head 1.28374 -2.71489 4.64195
rclavicle -6.85807e-015 8.34896e-015
rhumerus 40.8873 -8.89092 43.8686
rradius 39.0058
rwrist -61.9287
rhand -54.1916 -14.2695
rfingers 7.12502
rthumb -26.6067 -42.4202
lclavicle -6.85807e-015 8.34896e-015
lhumerus 42.7843 -19.9873 -74.7846
lradius 37.7158
lwrist 60.4898
lhand -61.5966 40.7907
lfingers 7.12502
lthumb -33.6704 67.6471
rfemur 6.91197 3.18351 28.7581
rtibia 28.9162
rfoot -17.7283 -19.7537
rtoes 1.42937
lfemur 10.5272 1.04212 -13.425
ltibia 22.1233
lfoot -12.8243 -3.28403
ltoes -12.6617
50
root 0.108578 17.5083 1.53919 167.733 -1.26066 -174.827
lowerback 10.2466 -2.09882 3.06317
upperback 1.77366 -2.61872 2.44193
thorax -3.90832 -1.43631 1.17756
lowerneck 8.48016 -3.45745 -11.4251
upperneck 6.84237 -5.2731 9.24489
head 1.2054 -2.65009 4.7157
rclavicle 1.81888e-014 1.98785e-015
rhumerus 37.6758 -7.90415 45.5441
rradius 39.0539
rwrist -63.7579
rhand -55.8972 -13.1896
rfingers 7.12502
rthumb -28.238 -41.0818
lclavicle 1.81888e-014 1.98785e-015
lhumerus 41.1276 -24.8595 -79.223
lradius 38.1929
lwrist 63.8034
lhand -62.155 41.5739
lfingers 7.12502
lthumb -34.201 68.3129
rfemur 6.89807 3.17243 28.7313
rtibia 28.9205
rfoot -17.8314 -19.6726
rtoes 1.39696
lfemur 10.5351 1.00414 -13.4633
ltibia 22.1077
lfoot -12.9538 -3.18739
ltoes -12.688
51
root 0.110426 17.5065 1.50811 167.866 -1.19158 -174.83
lowerback 10.1676 -2.15547 3.09129
upperback 1.6854 -2.68505 2.46221
thorax -3.95729 -1.46759 1.19111
lowerneck 8.78742 -3.32457 -11.6332
upperneck 6.7916 -5.13352 9.3677
head 1.13522 -2.58687 4.79537
rclavicle -7.15625e-015 -1.86858e-014
rhumerus 34.7373 -7.41594 46.0249
rradius 39.0074
rwrist -65.4902
rhand -57.7784 -12.0396
rfingers 7.12502
rthumb -30.0344 -39.6207
lclavicle -7.15625e-015 -1.86858e-014
lhumerus 39.5347 -29.4802 -82.4443
lradius 38.7287
lwrist 66.4884
lhand -62.7607 42.4031
lfingers 7.12502
lthumb -34.7759 69.0112
rfemur 6.86968 3.16413 28.7258
rtibia 28.928
rfoot -17.9271 -19.5918
rtoes 1.3618
lfemur 10.5299 1.04915 -13.4533
ltibia 22.0873
lfoot -13.0761 -3.14836
ltoes -12.8937
52
root 0.112442 17.5035 1.4766 167.949 -1.11547 -174.851
lowerback 10.1246 -2.19446 3.12003
upperback 1.63534 -2.73041 2.45903
thorax -3.98744 -1.4892 1.1775
lowerneck 9.08125 -3.19637 -11.7813
upperneck 6.68467 -4.99713 9.49492
head 1.04881 -2.52515 4.86625
rclavicle -8.19987e-016 4.77083e-015
rhumerus 31.867 -7.16486 45.9202
rradius 39.0031
rwrist -67.5113
rhand -59.7835 -10.8069
rfingers 7.12502
rthumb -31.9458 -38.0237
lclavicle -8.19987e-016 4.77083e-015
lhumerus 37.7432 -33.5397 -84.1478
lradius 39.0773
lwrist 68.3279
lhand -63.3108 43.1118
lfingers 7.12502
lthumb -35.2978 69.5978
rfemur 6.89934 3.16662 28.711
rtibia 28.9396
rfoot -18.0341 -19.5196
rtoes 1.31489
lfemur 10.5928 1.01123 -13.4866
ltibia 22.0578
lfoot -13.2024 -3.04013
ltoes -12.9475
